<?xml version="1.0" encoding="utf-8"?>
<!-- Generator: Adobe Illustrator 16.0.0, SVG Export Plug-In . SVG Version: 6.00 Build 0)  -->
<!DOCTYPE svg PUBLIC "-//W3C//DTD SVG 1.1//EN" "http://www.w3.org/Graphics/SVG/1.1/DTD/svg11.dtd">
<svg version="1.1" id="Layer_1" xmlns="http://www.w3.org/2000/svg" xmlns:xlink="http://www.w3.org/1999/xlink" x="0px" y="0px"
	 width="233.944px" height="63.82px" viewBox="0 0 233.944 63.82" enable-background="new 0 0 233.944 63.82" xml:space="preserve">
<g>
	<path fill="#2DB2EF" d="M139.312,50.041c13.051,1.418,21.844,4.033,21.844,7.045c0,2.797-7.594,5.264-19.156,6.734
		c14.629-1.359,24.482-3.883,24.482-6.773C166.482,53.982,155.414,51.332,139.312,50.041z"/>
	<path fill="#2DB2EF" d="M90.889,57.086c0-3.008,8.789-5.627,21.836-7.043c-16.1,1.293-27.162,3.939-27.162,7.004
		c0,2.891,9.852,5.41,24.475,6.773C98.479,62.35,90.889,59.883,90.889,57.086z"/>
	<path fill="#2DB2EF" d="M102.359,55.854c0-2.283,7.031-4.246,17.154-5.156c-13.751,0.775-23.574,2.775-23.574,5.129
		c0,2.273,9.129,4.221,22.13,5.051C108.721,59.916,102.359,58.027,102.359,55.854z"/>
	<path fill="#2DB2EF" d="M132.529,50.697c10.127,0.91,17.156,2.873,17.156,5.156c0,2.174-6.361,4.063-15.713,5.023
		c13.002-0.832,22.129-2.777,22.129-5.051C156.101,53.473,146.283,51.473,132.529,50.697z"/>
</g>
<g>
	<radialGradient id="SVGID_1_" cx="129.4907" cy="31.2148" r="33.9173" gradientUnits="userSpaceOnUse">
		<stop  offset="0" style="stop-color:#52C1F8"/>
		<stop  offset="1" style="stop-color:#2785E2"/>
	</radialGradient>
	<path fill="url(#SVGID_1_)" d="M141.849,27.379c-0.525,0.883-1.615,1.184-2.486,0.684c-0.248-0.141-0.516-0.449-0.764-0.838
		c-0.867-1.371-0.914-3.146-0.111-4.561c0.107-0.191,0.238-0.387,0.385-0.588c0.295-0.402,0.395-0.914,0.275-1.398
		c-0.121-0.482-0.449-0.889-0.898-1.107c-0.434-0.209-0.941-0.195-1.363,0.037s-0.705,0.654-0.76,1.133
		c-0.041,0.365-0.078,0.707-0.121,1.041c-0.092,0.689-0.586,1.246-1.234,1.389c-0.121,0.025-0.295,0.033-0.492,0.021
		c-0.666-0.029-1.281-0.367-1.688-0.92c-0.406-0.555-0.559-1.268-0.418-1.951c0.15-0.738,0.387-1.689,0.754-2.914
		c0.305-1.018,0.469-2.1,0.49-3.172c0.035-1.928-0.174-3.863-1.564-4.623c-1.121-0.607-2.893,0.232-3.771,1.654
		c-0.502,0.824-0.844,1.744-1.033,2.777c-0.643,3.475,0.557,6.039,1.648,7.559c0.328,0.457,0.457,1.037,0.359,1.6
		c-0.102,0.561-0.42,1.057-0.883,1.357c-0.68,0.445-1.535,0.451-2.219,0.02c-0.52-0.328-0.873-0.863-0.99-1.471
		c-0.146-0.756-0.709-1.361-1.451-1.561c-0.742-0.203-1.531,0.037-2.039,0.613c-0.596,0.676-0.789,1.66,0.041,2.697
		c0.1,0.123,0.197,0.256,0.287,0.387c0.1,0.15,0.199,0.295,0.295,0.436c1.412,2.074,1.26,4.887-0.361,6.783
		c-0.363,0.424-0.723,0.734-1.051,0.822c-3.22,0.861-1.875-4.703-2.539-7.447c-0.507-2.129-1.167-4.176-2.58-5.707
		c-0.994-1.086-2.088-1.451-3.229-0.635c-3.359,2.355,1.645,8.023,3.133,11.398c0.508,1.188,1.531,2.988-0.078,3.75
		c-0.406,0.191-0.949,0.242-1.535,0.186c-1.822-0.174-3.318-1.535-3.781-3.371l-0.027,0.014c-0.916-6.24-3.232-9.98-6.084-11.789
		c-0.689-0.52-1.395-1.012-2.127-1.453c-3.301-1.984-6.453-2.395-9.496-1.461c-2.891,0.859-3.334,4.285-0.746,6.984
		c0.852,0.871,1.797,1.277,2.805,1.43c0.801,0.125,1.633,0.27,2.473,0.453c1.816,0.391,4.895,0.932,7.258,2.238
		c1.023,0.568,1.787,1.502,2.143,2.607c1.225,3.842-1.275,15.576,6.088,22.482c4.852,4.551,11.562,6.34,17.896,4.742
		c6.34-1.582,11.516-6.342,13.926-12.684c1.738-4.551,4.381-5.289,6.168-7.199c0-0.002,0.004-0.004,0.004-0.006
		c1.197-1.279,1.23-3.322,0.074-4.643c-1.158-1.32-3.094-1.453-4.408-0.305c-0.824,0.723-1.482,1.531-1.848,2.145
		c-0.404,0.686-1.217,0.973-1.934,0.682c-0.715-0.289-1.137-1.072-1-1.867c0.674-3.988,3.539-10.471,10.598-13.855
		c1.752-0.84,18.699-9.088,17.154-13.713C166.417,0.926,155.207,4.91,141.849,27.379z"/>
	<radialGradient id="SVGID_2_" cx="105.6025" cy="10.7422" r="4.8824" gradientUnits="userSpaceOnUse">
		<stop  offset="0" style="stop-color:#52C1F8"/>
		<stop  offset="1" style="stop-color:#2785E2"/>
	</radialGradient>
	<path fill-rule="evenodd" clip-rule="evenodd" fill="url(#SVGID_2_)" d="M104.524,5.979c0.446,0.145,0.857,0.364,1.226,0.654
		c2.281,1.791,3.691,4.254,4.529,7.498c0.113,0.455,0.289,1.068-0.037,1.393c-0.428,0.43-0.83-0.125-1.166-0.475
		c-1.609-1.646-3.23-2.828-5.266-3.053c-2.301-0.27-3.188-1.447-3.014-3.352c0.191-2.086,1.684-3.199,3.486-2.736
		C104.364,5.929,104.445,5.953,104.524,5.979z"/>
	
		<radialGradient id="SVGID_3_" cx="9.1572" cy="-33.9346" r="3.1728" gradientTransform="matrix(0.9711 -0.2388 0.2388 0.9711 155.3963 57.2837)" gradientUnits="userSpaceOnUse">
		<stop  offset="0" style="stop-color:#52C1F8"/>
		<stop  offset="1" style="stop-color:#2785E2"/>
	</radialGradient>
	<path fill-rule="evenodd" clip-rule="evenodd" fill="url(#SVGID_3_)" d="M159.763,20.574c0.607,1.277-0.027,2.842-1.264,2.852
		c-1.789,0.016-3.416,0.375-5.014,1.586c-0.5,0.379-0.699,0.092-0.646-0.531c0.25-2.43,3.703-5.453,5.648-4.953
		C159.041,19.688,159.453,20.082,159.763,20.574z"/>
	<radialGradient id="SVGID_4_" cx="140.7964" cy="14.6885" r="3.0161" gradientUnits="userSpaceOnUse">
		<stop  offset="0" style="stop-color:#52C1F8"/>
		<stop  offset="1" style="stop-color:#2785E2"/>
	</radialGradient>
	<circle fill-rule="evenodd" clip-rule="evenodd" fill="url(#SVGID_4_)" cx="140.796" cy="14.689" r="3.016"/>
	<radialGradient id="SVGID_5_" cx="130.6167" cy="2.6162" r="2.6157" gradientUnits="userSpaceOnUse">
		<stop  offset="0" style="stop-color:#52C1F8"/>
		<stop  offset="1" style="stop-color:#2785E2"/>
	</radialGradient>
	<circle fill-rule="evenodd" clip-rule="evenodd" fill="url(#SVGID_5_)" cx="130.617" cy="2.617" r="2.615"/>
</g>
<path fill="#003F8A" d="M140.796,32.008c-0.047-0.031-0.102-0.059-0.15-0.09l-0.209,0.359L140.796,32.008z"/>
<path fill="#003F8A" d="M144.875,42.521c-2.084-0.346-4.736,0.629-7.896,0.51c1.367-2.699,2.582-4.887,3.406-6.121
	c0.791-1.203,1.256-1.875,1.32-1.928l0.832-0.502l-0.168-0.793c-0.111-0.52-0.582-1.766-1.404-2.316l-0.318,0.547
	c0.049,0.031,0.104,0.059,0.15,0.09l-0.359,0.27l0.209-0.359c-1.281-0.832-2.941-1.516-3.805-1.516
	c-0.572,0-1.113,0.305-1.605,0.908c-1.287,1.572-4.078,6.998-6.242,11.6c-3.822,0.086-8.164,0.682-11.23,1.137
	c4.75-4.844,15.164-15.982,15.164-18.268c0-0.752-0.863-2.443-1.695-2.975l-0.67,2.004l0.932-0.949
	c-1.184-0.754-2.846-1.277-4.023-1.531l-3.273,3.582c-2.496,4.391-10.301,13.246-13.629,17.023
	c-0.665,0.754-1.276,1.448-1.811,2.061c-0.084,0.097-0.225,0.121-0.337,0.059s-0.167-0.194-0.129-0.317l0.121-0.4
	c-1.836,3.67,0.496,6.938,2.688,6.938l0.324-0.055c1.152-0.398,8.441-2.223,15.211-3.117c-1.645,3.77-3.604,9.051-3.604,11.176
	c0,1.848,3.979,3.824,5.729,3.824l2.016,0.102l-1.15-1.586c-0.275-0.98,1.475-6.338,5.252-14.398
	c2.102-0.178,4.701-0.348,7.045-0.379c1.074-0.014,2.094-0.469,2.824-1.254c0.73-0.789,1.105-1.842,1.037-2.914L144.875,42.521z"/>
<g>
	<path fill="#FFFFFF" d="M166.541,8.953c0.584-0.67,0.621-1.652,0.096-2.363c-0.515-0.699-1.067-0.853-1.669-0.758
		c-0.781,0.124-1.403,0.721-1.557,1.497c-0.294,1.485-1.305,3.117-2.416,4.546c-0.207,0.266-0.188,0.644,0.043,0.888
		c0.232,0.245,0.608,0.283,0.885,0.09C163.668,11.636,165.398,10.269,166.541,8.953z"/>
	<path fill-rule="evenodd" clip-rule="evenodd" fill="#FFFFFF" d="M131.564,10.996c-0.172-0.094-0.366-0.141-0.57-0.146
		c-0.549-0.017-1.051,0.307-1.262,0.814c-0.211,0.506-0.088,1.091,0.309,1.469c0.825,0.786,1.372,1.824,1.614,3.4
		c0.027,0.177,0.175,0.312,0.354,0.321s0.341-0.107,0.387-0.281c0.172-0.643,0.299-1.273,0.319-2.173
		C132.742,12.98,132.587,11.555,131.564,10.996z"/>
	<path fill-rule="evenodd" clip-rule="evenodd" fill="#FFFFFF" d="M113.953,26.532c0.056,0.093,0.171,0.131,0.271,0.088
		c0.1-0.042,0.152-0.152,0.124-0.257l-1.477-5.376c-0.055-0.2-0.231-0.342-0.438-0.354c-0.207-0.011-0.397,0.11-0.474,0.303
		C111.375,22.405,112.826,24.641,113.953,26.532z"/>
	<path fill-rule="evenodd" clip-rule="evenodd" fill="#FFFFFF" d="M101.072,19.418c-0.721-0.348-1.451-0.664-2.197-0.93
		c-2.512-0.894-4.789-1.003-6.859-0.417c-0.206,0.058-0.338,0.258-0.311,0.47s0.205,0.373,0.418,0.378
		c3.409,0.085,5.976,0.417,8.801,1.011c0.136,0.029,0.272-0.052,0.312-0.186s-0.03-0.276-0.161-0.326
		C101.074,19.418,101.073,19.418,101.072,19.418z"/>
	<path fill-rule="evenodd" clip-rule="evenodd" fill="#FFFFFF" d="M147.624,33.347c-0.267,0-0.499,0.183-0.56,0.443
		c-0.061,0.26,0.064,0.527,0.303,0.647c1.164,0.583,1.594,1.426,1.886,2.658c0.032,0.133,0.143,0.231,0.279,0.246
		s0.266-0.057,0.325-0.18c0.458-0.953,0.33-2.14-0.396-2.966C148.971,33.633,148.299,33.347,147.624,33.347z"/>
	<path fill-rule="evenodd" clip-rule="evenodd" fill="#FFFFFF" d="M158.71,20.211c0.176,0.535,0.344,1.007,0.294,1.552
		c-0.016,0.167,0.101,0.317,0.266,0.344c0.166,0.027,0.324-0.079,0.361-0.242c0.072-0.308,0.042-0.663-0.115-0.988l-0.068-0.108
		C159.28,20.498,159.017,20.299,158.71,20.211z"/>
	<path fill-rule="evenodd" clip-rule="evenodd" fill="#FFFFFF" d="M142.421,12.668c-0.602-0.402-1.289-0.432-1.539-0.063
		c-0.242,0.367,0.047,0.992,0.648,1.395s1.289,0.434,1.535,0.066S143.023,13.07,142.421,12.668z"/>
	<path fill-rule="evenodd" clip-rule="evenodd" fill="#FFFFFF" d="M131.966,2.934c0.301-0.301,0.223-0.871-0.176-1.273
		c-0.4-0.402-0.969-0.484-1.273-0.184c-0.301,0.305-0.225,0.875,0.176,1.277C131.093,3.152,131.664,3.234,131.966,2.934z"/>
	<path fill-rule="evenodd" clip-rule="evenodd" fill="#FFFFFF" d="M106.879,9.167c0.05,0.059,0.138,0.067,0.199,0.021
		c0.061-0.047,0.075-0.134,0.031-0.197c-0.564-0.817-1.252-1.518-2.091-2.103c-0.152-0.055-0.416-0.168-0.677-0.236
		c-0.854-0.218-1.613,0.044-2.082,0.667c-0.237,0.314-0.228,0.75,0.022,1.054c0.25,0.304,0.675,0.397,1.03,0.227
		C104.288,8.127,105.282,7.307,106.879,9.167z"/>
	<path fill="#FFFFFF" d="M124.295,23.303c0.059,0.031,0.13,0.021,0.179-0.024c0.048-0.046,0.062-0.117,0.034-0.177
		c-0.2-0.429-0.58-0.758-1.051-0.886c-0.246-0.065-0.497-0.072-0.737-0.025c-0.126,0.025-0.216,0.137-0.213,0.267
		c0.003,0.129,0.1,0.236,0.228,0.254C123.33,22.794,123.8,23.04,124.295,23.303z"/>
</g>
<g>
	<path fill="#FFFFFF" d="M108.412,44.336c4.498-5.25,18.453-20.287,17.203-23.285c-0.25-0.75,6.039,1,6.039,2.457
		c0,2.082-14.703,17.703-17.035,19.703c2.25-0.293,9.246-1.541,14.746-1.582c2.539-5.457,5.248-10.582,6.373-11.957
		c0.375-0.457,0.664-0.541,0.832-0.541c1.375-0.041,5.207,2.334,4.457,2.666c-0.332,0.207-0.625,0.582-1.75,2.291
		c-1,1.5-2.539,4.332-4.164,7.623c3.582,0.084,6.996,0.334,9.496,0.75c0.25,0.043-0.582,1.207-0.707,1.125
		c-2.707-0.082-6.207,0.082-9.957,0.416c-3.248,6.873-6.33,14.623-5.455,15.83c-1.625,0-4.875-1.918-4.875-2.875
		c0-1.832,1.957-6.957,4.375-12.33c-7.332,0.791-15.955,2.959-17.164,3.373C109.619,48,107.744,45.668,108.412,44.336z"/>
</g>
<g>
	<g>
		<radialGradient id="SVGID_6_" cx="9.9492" cy="38.5332" r="10.7057" gradientUnits="userSpaceOnUse">
			<stop  offset="0" style="stop-color:#52C1F8"/>
			<stop  offset="1" style="stop-color:#2785E2"/>
		</radialGradient>
		<path fill="url(#SVGID_6_)" d="M0,46.564l3.615-3.152c1.281,1.91,3.119,2.451,4.775,2.451c1.811,0,3.631-0.938,3.971-2.66
			c0.334-1.682-1.191-2.396-3.145-3.012c-4.094-1.201-5.969-3.152-5.258-6.805c0.736-3.766,4.973-6.266,8.939-6.266
			c3.234,0,5.4,1.174,7,2.695l-3.443,3.117c-1.174-1.234-2.398-1.727-3.889-1.727c-1.676,0-3.232,0.994-3.527,2.469
			c-0.27,1.348,0.551,2.076,3.354,2.984c3.453,1.078,5.914,3.145,5.18,6.906c-0.871,4.469-5.463,6.379-9.275,6.379
			C4.723,49.945,1.98,48.91,0,46.564z"/>
		<radialGradient id="SVGID_7_" cx="28.6846" cy="44.958" r="10.8035" gradientUnits="userSpaceOnUse">
			<stop  offset="0" style="stop-color:#52C1F8"/>
			<stop  offset="1" style="stop-color:#2785E2"/>
		</radialGradient>
		<path fill="url(#SVGID_7_)" d="M38.377,41.801c-1.004,5.131-4.711,8.145-8.732,8.145c-2.137,0-3.615-0.797-4.563-2.004
			l-1.666,8.65h-4.635l4.418-22.861h4.076l0.018,1.621c1.365-1.215,3.117-2.027,5.244-2.027
			C36.703,33.324,39.381,36.504,38.377,41.801z M33.639,41.469c0.496-2.498-0.664-4.25-2.842-4.25c-2.365,0-4.426,1.92-4.924,4.584
			c-0.496,2.498,0.703,4.248,2.914,4.248c2.332,0,4.355-1.918,4.852-4.584V41.469z"/>
		<radialGradient id="SVGID_8_" cx="44.5127" cy="37.8945" r="8.781" gradientUnits="userSpaceOnUse">
			<stop  offset="0" style="stop-color:#52C1F8"/>
			<stop  offset="1" style="stop-color:#2785E2"/>
		</radialGradient>
		<path fill="url(#SVGID_8_)" d="M44.426,26.336h4.627l-4.451,23.117h-4.629L44.426,26.336z"/>
		<radialGradient id="SVGID_9_" cx="57.9902" cy="41.6348" r="8.714" gradientUnits="userSpaceOnUse">
			<stop  offset="0" style="stop-color:#52C1F8"/>
			<stop  offset="1" style="stop-color:#2785E2"/>
		</radialGradient>
		<path fill="url(#SVGID_9_)" d="M67.09,33.73l-3.057,15.723h-3.814l-0.127-1.629c-1.457,1.271-3.305,2.121-5.512,2.121
			c-4.02,0-6.51-3.014-5.441-8.143c1.135-5.297,5.1-8.479,9.266-8.479c1.986,0,3.359,0.709,4.244,1.793l0.646-1.387H67.09z
			 M57.012,46.051c2.211,0,4.117-1.752,4.629-4.248c0.58-2.666-0.705-4.584-3.07-4.584c-2.178,0-4.047,1.752-4.559,4.248
			C53.432,44.131,54.68,46.051,57.012,46.051z"/>
		<radialGradient id="SVGID_10_" cx="75.2373" cy="41.6348" r="8.1343" gradientUnits="userSpaceOnUse">
			<stop  offset="0" style="stop-color:#52C1F8"/>
			<stop  offset="1" style="stop-color:#2785E2"/>
		</radialGradient>
		<path fill="url(#SVGID_10_)" d="M70.287,44.771c1.037,1.322,2.27,1.725,3.557,1.725c1.588,0,2.592-0.699,2.77-1.705
			c0.502-2.529-7.637-0.885-6.576-6.479c0.58-2.93,3.371-4.988,7.529-4.988c2.682,0,4.709,0.99,5.625,1.984l-2.867,2.73
			c-0.734-0.795-1.863-1.258-2.875-1.252c-1.43,0.01-2.396,0.658-2.584,1.723c-0.568,2.869,7.805,1.139,6.76,6.643
			c-0.551,2.781-3.273,4.793-7.518,4.793c-3.398,0-5.674-1.074-6.824-2.496L70.287,44.771z"/>
		<radialGradient id="SVGID_11_" cx="92.4971" cy="37.8945" r="10.1999" gradientUnits="userSpaceOnUse">
			<stop  offset="0" style="stop-color:#52C1F8"/>
			<stop  offset="1" style="stop-color:#2785E2"/>
		</radialGradient>
		<path fill="url(#SVGID_11_)" d="M100.957,39.729l-1.885,9.725h-4.637l1.672-8.703c0.445-2.309-0.096-3.52-1.934-3.52
			c-1.68,0-3.561,1.297-4.215,4.68l0.035-0.227l-1.496,7.77h-4.631l4.451-23.117h4.633l-1.719,8.922
			c1.377-1.256,2.973-1.934,4.938-1.934C98.959,33.324,101.867,34.975,100.957,39.729z"/>
	</g>
	<g>
		<radialGradient id="SVGID_12_" cx="161.896" cy="38.5742" r="10.3511" gradientUnits="userSpaceOnUse">
			<stop  offset="0" style="stop-color:#52C1F8"/>
			<stop  offset="1" style="stop-color:#2785E2"/>
		</radialGradient>
		<path fill="url(#SVGID_12_)" d="M171.554,34.832c-0.805,4.102-4.645,6.752-8.695,6.762l-4.27,0.014l-1.512,7.846h-4.977
			l4.191-21.758h9.09C169.429,27.695,172.371,30.531,171.554,34.832z M163.359,31.402l-2.809,0.014l-1.246,6.475l2.648,0.016
			c2.445,0.016,4.117-1.279,4.516-3.41C166.867,32.498,165.812,31.383,163.359,31.402z"/>
		<radialGradient id="SVGID_13_" cx="180.4619" cy="41.6348" r="8.5898" gradientUnits="userSpaceOnUse">
			<stop  offset="0" style="stop-color:#52C1F8"/>
			<stop  offset="1" style="stop-color:#2785E2"/>
		</radialGradient>
		<path fill="url(#SVGID_13_)" d="M171.773,41.459c0.91-4.705,5.063-8.135,10.117-8.135c5.23,0,8.195,3.605,7.262,8.486
			c-0.91,4.703-5.07,8.135-10.141,8.135C173.796,49.945,170.835,46.338,171.773,41.459z M184.445,41.459
			c0.48-2.484-0.766-4.229-2.984-4.229c-2.371,0-4.469,1.92-4.98,4.58c-0.48,2.484,0.754,4.229,2.961,4.229
			C181.824,46.039,183.933,44.119,184.445,41.459z"/>
		<radialGradient id="SVGID_14_" cx="199.7729" cy="41.6348" r="8.5893" gradientUnits="userSpaceOnUse">
			<stop  offset="0" style="stop-color:#52C1F8"/>
			<stop  offset="1" style="stop-color:#2785E2"/>
		</radialGradient>
		<path fill="url(#SVGID_14_)" d="M191.085,41.459c0.906-4.705,5.063-8.135,10.117-8.135c5.227,0,8.195,3.605,7.258,8.486
			c-0.906,4.703-5.07,8.135-10.137,8.135C193.109,49.945,190.148,46.338,191.085,41.459z M203.757,41.459
			c0.477-2.484-0.766-4.229-2.988-4.229c-2.367,0-4.469,1.92-4.98,4.58c-0.48,2.484,0.758,4.229,2.965,4.229
			C201.136,46.039,203.246,44.119,203.757,41.459z"/>
		<radialGradient id="SVGID_15_" cx="214.6147" cy="37.8945" r="8.7813" gradientUnits="userSpaceOnUse">
			<stop  offset="0" style="stop-color:#52C1F8"/>
			<stop  offset="1" style="stop-color:#2785E2"/>
		</radialGradient>
		<path fill="url(#SVGID_15_)" d="M214.527,26.336h4.629l-4.453,23.117h-4.629L214.527,26.336z"/>
		<radialGradient id="SVGID_16_" cx="225.9253" cy="41.6348" r="8.1338" gradientUnits="userSpaceOnUse">
			<stop  offset="0" style="stop-color:#52C1F8"/>
			<stop  offset="1" style="stop-color:#2785E2"/>
		</radialGradient>
		<path fill="url(#SVGID_16_)" d="M220.976,44.771c1.035,1.322,2.27,1.725,3.555,1.725c1.59,0,2.594-0.699,2.77-1.705
			c0.504-2.529-7.637-0.885-6.574-6.479c0.578-2.93,3.371-4.988,7.527-4.988c2.684,0,4.711,0.99,5.625,1.984l-2.867,2.73
			c-0.734-0.795-1.863-1.258-2.875-1.252c-1.43,0.01-2.395,0.658-2.582,1.723c-0.57,2.869,7.805,1.139,6.758,6.643
			c-0.551,2.781-3.273,4.793-7.516,4.793c-3.398,0-5.676-1.074-6.824-2.496L220.976,44.771z"/>
	</g>
</g>
<g>
	<path fill="#2B398F" d="M12.361,43.203c-0.34,1.723-2.16,2.66-3.971,2.66c-1.656,0-3.494-0.541-4.775-2.451L0,46.564
		c1.98,2.346,4.723,3.381,8.297,3.381c3.813,0,8.404-1.91,9.275-6.379c0.133-0.676,0.124-1.279,0.059-1.85h-5.599
		C12.336,42.115,12.482,42.59,12.361,43.203z"/>
	<path fill="#2B398F" d="M28.787,46.051c-2.211,0-3.41-1.75-2.914-4.248c0.006-0.029,0.017-0.057,0.023-0.086h-4.24l-2.875,14.875
		h4.635l1.666-8.65c0.947,1.207,2.426,2.004,4.563,2.004c4.021,0,7.729-3.014,8.732-8.145c0.006-0.029,0.005-0.055,0.01-0.084
		h-4.814C32.998,44.246,31.043,46.051,28.787,46.051z"/>
	<polygon fill="#2B398F" points="39.973,49.453 44.602,49.453 46.091,41.717 41.463,41.717 	"/>
	<path fill="#2B398F" d="M61.641,41.803c-0.512,2.496-2.418,4.248-4.629,4.248c-2.256,0-3.481-1.805-3.035-4.334h-4.813
		c-0.008,0.029-0.019,0.057-0.025,0.086c-1.068,5.129,1.422,8.143,5.441,8.143c2.207,0,4.055-0.85,5.512-2.121l0.127,1.629h3.814
		l1.505-7.736h-3.886C61.646,41.746,61.647,41.773,61.641,41.803z"/>
	<path fill="#2B398F" d="M76.613,44.791c-0.178,1.006-1.182,1.705-2.77,1.705c-1.287,0-2.52-0.402-3.557-1.725l-3.004,2.678
		c1.15,1.422,3.426,2.496,6.824,2.496c4.244,0,6.967-2.012,7.518-4.793c0.334-1.76-0.305-2.77-1.296-3.436h-9.188
		C73.146,43.279,76.962,43.031,76.613,44.791z"/>
	<polygon fill="#2B398F" points="94.436,49.453 99.072,49.453 100.571,41.717 95.922,41.717 	"/>
	<polygon fill="#2B398F" points="83.867,49.453 88.498,49.453 89.987,41.717 85.356,41.717 	"/>
	<polygon fill="#2B398F" points="152.101,49.453 157.078,49.453 158.568,41.717 153.591,41.717 	"/>
	<path fill="#2B398F" d="M179.441,46.039c-2.207,0-3.441-1.744-2.961-4.229c0.006-0.033,0.02-0.061,0.025-0.094h-4.758
		c-0.781,4.744,2.145,8.229,7.264,8.229c5.07,0,9.23-3.432,10.141-8.135c0.006-0.033,0.004-0.061,0.01-0.094h-4.787
		C183.777,44.238,181.744,46.039,179.441,46.039z"/>
	<path fill="#2B398F" d="M198.753,46.039c-2.207,0-3.445-1.744-2.965-4.229c0.006-0.033,0.02-0.061,0.025-0.094h-4.754
		c-0.781,4.744,2.145,8.229,7.264,8.229c5.066,0,9.23-3.432,10.137-8.135c0.006-0.033,0.004-0.061,0.01-0.094h-4.783
		C203.089,44.238,201.056,46.039,198.753,46.039z"/>
	<polygon fill="#2B398F" points="210.074,49.453 214.703,49.453 216.193,41.717 211.564,41.717 	"/>
	<path fill="#2B398F" d="M231.017,41.717h-9.189c2.008,1.563,5.824,1.314,5.473,3.074c-0.176,1.006-1.18,1.705-2.77,1.705
		c-1.285,0-2.52-0.402-3.555-1.725l-3.004,2.678c1.148,1.422,3.426,2.496,6.824,2.496c4.242,0,6.965-2.012,7.516-4.793
		C232.646,43.393,232.009,42.383,231.017,41.717z"/>
</g>
<g>
	<path fill="#2B398F" d="M18.441,43.26c0,0.342-0.022,0.697-0.098,1.08c-0.871,4.469-5.463,6.377-9.275,6.377
		c-3.037,0-5.468-0.758-7.346-2.42c1.966,2.203,4.646,3.191,8.117,3.191c3.813,0,8.404-1.91,9.275-6.379
		c0.133-0.676,0.124-1.279,0.059-1.85H18.441z"/>
	<path fill="#2B398F" d="M5.532,45.439c-0.127-0.154-0.255-0.307-0.374-0.484l-0.077,0.068C5.229,45.172,5.377,45.314,5.532,45.439z
		"/>
	<path fill="#2B398F" d="M25.854,48.715l-1.666,8.648h-3.714l-0.149,0.771h4.635l1.664-8.643C26.338,49.258,26.078,49,25.854,48.715
		z"/>
	<path fill="#2B398F" d="M71.907,46.393c-0.025-0.029-0.053-0.047-0.077-0.078l-0.008,0.006
		C71.851,46.344,71.879,46.371,71.907,46.393z"/>
	<path fill="#2B398F" d="M222.597,46.395c-0.025-0.031-0.053-0.047-0.078-0.08l-0.008,0.008
		C222.539,46.346,222.568,46.371,222.597,46.395z"/>
	<polygon fill="#2B398F" points="157.849,50.225 153.792,50.225 153.644,50.996 158.621,50.996 160.111,43.26 159.191,43.26 	"/>
	<polygon fill="#2B398F" points="99.844,50.225 96.127,50.225 95.979,50.996 100.615,50.996 102.114,43.26 101.193,43.26 	"/>
	<path fill="#2B398F" d="M179.783,50.717c-2.184,0-3.938-0.662-5.205-1.76c1.264,1.574,3.313,2.531,5.977,2.531
		c5.07,0,9.23-3.432,10.141-8.135c0.006-0.033,0.004-0.061,0.01-0.094h-0.977C188.562,47.604,184.601,50.717,179.783,50.717z"/>
	<path fill="#2B398F" d="M199.095,50.717c-2.184,0-3.938-0.662-5.205-1.76c1.264,1.574,3.313,2.531,5.977,2.531
		c5.066,0,9.23-3.432,10.137-8.135c0.006-0.033,0.004-0.061,0.01-0.094h-0.977C207.873,47.604,203.91,50.717,199.095,50.717z"/>
	<path fill="#2B398F" d="M232.619,43.311c0.455,0.627,0.688,1.443,0.465,2.611c-0.551,2.781-3.273,4.795-7.516,4.795
		c-2.762,0-4.744-0.725-6.02-1.756l-0.033,0.031c1.148,1.422,3.426,2.496,6.824,2.496c4.242,0,6.965-2.012,7.516-4.793
		C234.181,44.975,233.574,43.977,232.619,43.311z"/>
	<path fill="#2B398F" d="M30.416,50.717c-1.59,0-2.813-0.443-3.727-1.166c0.949,1.166,2.403,1.938,4.498,1.938
		c4.021,0,7.729-3.014,8.732-8.145c0.006-0.029,0.005-0.055,0.01-0.084h-0.969C37.767,47.957,34.248,50.717,30.416,50.717z"/>
	<polygon fill="#2B398F" points="215.474,50.225 211.765,50.225 211.617,50.996 216.246,50.996 217.736,43.26 216.816,43.26 	"/>
	<polygon fill="#2B398F" points="45.373,50.225 41.664,50.225 41.516,50.996 46.145,50.996 47.634,43.26 46.714,43.26 	"/>
	<path fill="#2B398F" d="M60.863,48.594c-1.457,1.273-3.305,2.123-5.512,2.123c-1.446,0-2.684-0.404-3.64-1.143
		c1.003,1.23,2.528,1.914,4.411,1.914c1.889,0,3.496-0.645,4.84-1.621L60.863,48.594z"/>
	<polygon fill="#2B398F" points="89.27,50.225 85.559,50.225 85.41,50.996 90.041,50.996 91.53,43.26 90.61,43.26 	"/>
	<polygon fill="#2B398F" points="64.805,50.225 61.701,50.225 61.762,50.996 65.576,50.996 67.081,43.26 66.159,43.26 	"/>
	<path fill="#2B398F" d="M81.931,43.311c0.456,0.627,0.688,1.443,0.466,2.611c-0.551,2.781-3.273,4.795-7.518,4.795
		c-2.762,0-4.742-0.725-6.02-1.756l-0.033,0.031c1.15,1.422,3.426,2.496,6.824,2.496c4.244,0,6.967-2.012,7.518-4.793
		C83.494,44.975,82.885,43.977,81.931,43.311z"/>
</g>
<g>
	<path fill="#FFFFFF" d="M161.123,53.955c3.486,1.975,3.906,3.363,0.848,5.848c2.027-0.857,3.139-1.785,3.139-2.756
		C165.109,55.949,163.689,54.904,161.123,53.955z"/>
	<path fill="#FFFFFF" d="M150.498,53.406c3.486,1.414,3.906,2.408,0.846,4.186c2.029-0.613,3.141-1.277,3.141-1.973
		C154.484,54.834,153.062,54.086,150.498,53.406z"/>
	<path fill="#FFFFFF" d="M90.605,53.955c-3.486,1.975-3.908,3.363-0.85,5.848c-2.027-0.857-3.139-1.785-3.139-2.756
		C86.617,55.949,88.039,54.904,90.605,53.955z"/>
	<path fill="#FFFFFF" d="M101.229,53.406c-3.486,1.414-3.908,2.408-0.846,4.186c-2.027-0.613-3.139-1.277-3.139-1.973
		C97.244,54.834,98.664,54.086,101.229,53.406z"/>
</g>
</svg>
